<?xml version="1.0" encoding="utf-8"?>
<!-- Generator: Adobe Illustrator 16.0.0, SVG Export Plug-In . SVG Version: 6.00 Build 0)  -->
<!DOCTYPE svg PUBLIC "-//W3C//DTD SVG 1.1//EN" "http://www.w3.org/Graphics/SVG/1.1/DTD/svg11.dtd">
<svg version="1.1" id="Layer_1" xmlns="http://www.w3.org/2000/svg" xmlns:xlink="http://www.w3.org/1999/xlink" x="0px" y="0px"
	 width="758.737px" height="394.589px" viewBox="0 0 758.737 394.589" enable-background="new 0 0 758.737 394.589"
	 xml:space="preserve">
<g>
	<g>
		<path fill="#00539B" d="M428.761,236.166c-9.672,0-18.67,3.874-26.256,11.271v-1.263c0-6.227-0.553-9.164-5.621-9.164h-5.053
			v100.355h10.674v-29.474c6.283,4.591,13.492,6.669,22.857,6.669c7.863,0,33.525-2.894,33.525-40.048
			C458.888,239.896,437.819,236.166,428.761,236.166z M424.085,305.298c-9.334,0-15.83-2.605-21.58-8.683v-37.038
			c8.107-9.556,16.107-14.016,25.123-14.016c13.184,0,20.449,10.532,20.449,29.653C448.077,300.082,435.026,305.298,424.085,305.298
			z"/>
		<path fill="#00539B" d="M523.165,242.646c-2.367-2.33-5.443-4.025-9.055-5.052c-3.492-0.999-7.512-1.428-11.83-1.428
			c-14.766,0.08-23.07,4.352-28.465,7.427c3.994,8.443,8.215,6.372,13.674,4.028c4.188-1.801,9.014-2.554,14.104-2.554
			c2.336,0.003,4.914,0.554,7.412,1.062c1.473,0.399,2.797,0.947,3.895,1.593c1.783,1.106,3.051,2.483,4.016,4.258
			c0.938,1.795,1.453,4.166,1.453,7.203v11.027c-5.58-1.242-11.199-1.799-17.605-1.799c-4.479,0-8.588,0.424-12.402,1.334
			c-2.785,0.694-5.314,1.631-7.729,2.867c-3.447,1.888-6.277,4.452-8.275,7.657c-1.98,3.28-3,7.134-3,11.634
			c0,3.653,0.654,7.061,1.859,9.952c1.918,4.32,5.201,7.735,9.273,9.926c4.143,2.238,8.99,3.355,14.465,3.355c0,0,0,0,0.021,0
			c6.307,0,11.309-1.174,15.592-3.17c2.914-1.428,5.465-3.172,7.801-5.251c0.047,1.013,0.129,1.836,0.248,2.608
			c0.113,0.84,0.326,1.593,0.707,2.281c0.254,0.505,0.584,1.013,1.033,1.404c0.674,0.54,1.447,0.918,2.236,1.104
			c0.811,0.217,1.729,0.275,2.707,0.275h3.74v-55.659c0-4.004-0.664-7.434-1.934-10.408
			C526.155,246.102,524.841,244.206,523.165,242.646z M518.368,295.141c-2.713,3.133-5.58,5.803-8.934,7.639
			c-3.535,1.968-7.812,3.14-13.516,3.14c-2.311,0-4.467-0.267-6.453-0.823c-1.424-0.396-2.68-1.004-3.838-1.749
			c-1.65-1.072-2.979-2.53-3.965-4.485c-0.986-1.987-1.535-4.449-1.535-7.527c0-2.638,0.533-4.703,1.535-6.412
			c0.77-1.315,1.699-2.414,2.914-3.483c1.779-1.458,4.141-2.5,7.006-3.262c2.781-0.729,6.002-1.08,9.617-1.08
			c6.355,0,11.959,0.832,17.168,1.969V295.141z"/>
		<path fill="#00539B" d="M141.303,220.768c2.385,0,4.532,0.144,6.503,0.402c4.278,0.545,7.66,1.636,10.457,3.037
			c0.099,0.052,0.2,0.103,0.295,0.148c0.354,0.184,0.693,0.37,1.029,0.56c0.5,0.297,0.993,0.591,1.449,0.894
			c0.032,0.021,0.062,0.049,0.095,0.07c0.267,0.178,0.531,0.361,0.782,0.548c0.302,0.213,0.579,0.442,0.87,0.672
			c0.791,0.653,1.541,1.305,2.261,1.906c0.775,0.643,1.527,1.224,2.274,1.683c2.728,1.66,5.474,1.668,9.682-3.084
			c-1.32-1.911-2.722-3.559-4.147-5.008c-6.992-7.112-14.66-9.11-17.778-10.058c-0.021-0.006-0.043-0.011-0.063-0.021v0.011
			c-2.183-0.523-4.571-0.896-7.205-1.145c-2.133-0.189-4.417-0.297-6.925-0.297c-22.614,0-45.43,15.97-45.43,51.666
			c0,0.089,0.005,0.187,0.005,0.284c0,0.1-0.005,0.186-0.005,0.283c0,35.69,22.815,51.661,45.43,51.661
			c2.508,0,4.792-0.108,6.925-0.297c2.634-0.24,5.022-0.618,7.205-1.14v0.006c0.021-0.006,0.042-0.011,0.063-0.021
			c3.118-0.948,10.786-2.94,17.778-10.053c1.426-1.447,2.827-3.097,4.147-5.014c-4.208-4.746-6.954-4.744-9.682-3.083
			c-0.747,0.461-1.499,1.036-2.274,1.685c-0.72,0.607-1.47,1.253-2.261,1.903c-0.291,0.225-0.568,0.462-0.87,0.675
			c-0.251,0.187-0.516,0.373-0.782,0.551c-0.033,0.027-0.062,0.046-0.095,0.07c-0.456,0.306-0.949,0.594-1.449,0.889
			c-0.336,0.194-0.676,0.378-1.029,0.562c-0.095,0.049-0.196,0.097-0.295,0.143c-2.797,1.407-6.179,2.501-10.457,3.054
			c-1.971,0.249-4.118,0.389-6.503,0.389c-21.261,0-34.469-15.97-34.469-41.695c0-0.191,0.014-0.372,0.014-0.566
			c0-0.195-0.014-0.373-0.014-0.564C106.834,236.749,120.042,220.768,141.303,220.768z"/>
		<path fill="#00539B" d="M572.958,269.343c-15.201-2.56-17.766-5.892-17.766-12.393c0-7.849,5.391-11.648,16.475-11.664
			c9.156-0.011,12.205,2.443,14.984,3.699c2.789,1.264,5.115,1.55,8.066-1.982c0.383-0.467,0.781-0.993,1.193-1.59
			c-0.328-0.362-0.725-0.767-1.193-1.213c-9.531-8.267-19.047-8.034-23.186-8.034c-16.402,0-26.592,8.181-26.592,21.349
			c0,15.538,13.15,19.626,24.605,21.462c15.576,2.5,18.322,6.12,18.322,12.813c0,9.478-5.994,14.072-18.322,14.072
			c-5.617,0-10.002-1.149-13.363-2.708v0.017c-5.049-2.39-7.902-4.844-11.949-0.486c-0.58,0.624-1.184,1.386-1.822,2.304
			c0.475,0.518,1.07,1.128,1.822,1.795c1.457,1.285,3.502,2.803,6.326,4.304c1.619,0.775,3.48,1.515,5.623,2.136
			c3.648,1.053,8.119,1.763,13.643,1.763c18.426,0,28.574-8.437,28.574-23.76C598.399,275.479,586.163,271.397,572.958,269.343z"/>
		<path fill="#00539B" d="M637.843,269.343c-15.203-2.56-17.766-5.892-17.766-12.393c0-7.849,5.387-11.648,16.479-11.664
			c9.15-0.011,12.201,2.443,14.986,3.699c2.785,1.264,5.107,1.55,8.061-1.982c0.385-0.467,0.781-0.993,1.199-1.59
			c-0.33-0.362-0.727-0.767-1.199-1.213c-9.525-8.267-19.051-8.034-23.189-8.034c-16.402,0-26.584,8.181-26.584,21.349
			c0,15.538,13.146,19.626,24.6,21.462c15.584,2.5,18.328,6.12,18.328,12.813c0,9.478-5.998,14.072-18.328,14.072
			c-5.617,0-10.002-1.149-13.357-2.708v0.017c-5.049-2.39-7.908-4.844-11.955-0.486c-0.576,0.624-1.178,1.386-1.814,2.304
			c0.465,0.518,1.064,1.128,1.814,1.795c1.461,1.285,3.508,2.803,6.326,4.304c1.623,0.775,3.484,1.515,5.629,2.136
			c3.652,1.053,8.119,1.763,13.641,1.763c18.428,0,28.574-8.437,28.574-23.76C663.286,275.479,651.05,271.397,637.843,269.343z"/>
		<path fill="#00539B" d="M240.993,242.283c-5.709-4.061-12.844-6.145-20.871-6.117c-5.358,0-10.228,0.898-14.666,2.638
			c-6.59,2.768-11.982,7.446-15.675,13.713c-3.689,6.283-5.698,14.1-5.698,22.987c0,6.005,0.888,11.424,2.589,16.286
			c2.51,7.226,6.872,13.027,12.596,17.013c5.775,3.901,12.873,6.034,20.854,6.034c5.303,0,10.246-0.972,14.715-2.743
			c6.569-2.684,11.976-7.338,15.618-13.575c3.761-6.226,5.709-14.051,5.709-23.015c0-5.942-0.864-11.437-2.521-16.227
			C251.081,252.015,246.756,246.198,240.993,242.283z M243.621,288.534c-1.801,5.635-4.741,9.817-8.629,12.703
			c-3.953,2.881-8.921,4.409-14.87,4.409c-4.018,0-7.568-0.699-10.648-2.003c-4.599-1.931-8.203-5.292-10.778-9.972
			c-2.506-4.711-3.901-10.748-3.901-18.168c0-4.862,0.594-9.188,1.78-12.951c1.769-5.581,4.741-9.863,8.652-12.766
			c3.909-2.981,8.893-4.509,14.896-4.509c3.946,0,7.512,0.683,10.556,1.998c4.646,2.03,8.227,5.43,10.729,10.197
			c2.591,4.679,3.976,10.771,3.976,18.03C245.382,280.424,244.767,284.811,243.621,288.534z"/>
		<path fill="#00539B" d="M369.717,242.011c-1.902-2.114-4.3-3.637-6.873-4.558c-2.638-0.898-5.526-1.287-8.523-1.287
			c-6.218,0-12.036,1.495-17.21,3.801c-4.312,1.977-8.162,4.404-11.576,7.071c-0.526-1.322-1.187-2.543-1.942-3.609
			c-1.91-2.565-4.463-4.49-7.357-5.656c-2.829-1.159-5.953-1.606-9.14-1.606c-6.418,0-12.296,1.606-17.399,3.998
			c-3.784,1.817-7.229,3.942-10.213,6.086v-0.141c0-1.66-0.017-2.973-0.169-4.079c-0.066-0.821-0.219-1.574-0.428-2.29
			c-0.189-0.483-0.46-0.98-0.872-1.374c-0.264-0.3-0.575-0.594-0.914-0.745c-0.568-0.308-1.066-0.47-1.628-0.532
			c-0.55-0.067-1.055-0.073-1.584-0.113h-5.029v77.235h10.624v-57.574c3.601-2.913,7.319-5.57,11.288-7.562
			c4.247-2.104,8.713-3.424,13.811-3.424c1.855,0,3.523,0.179,4.977,0.548c1.106,0.303,2.014,0.754,2.824,1.274
			c1.207,0.875,2.14,1.996,2.826,3.615c0.711,1.704,1.118,3.894,1.118,6.817v56.306h10.69v-57.66
			c3.538-2.827,7.283-5.463,11.209-7.466c4.212-2.104,8.67-3.435,13.549-3.435c2.014,0,3.779,0.179,5.254,0.548
			c1.096,0.303,2.047,0.754,2.87,1.274c1.19,0.87,2.073,1.969,2.758,3.615c0.661,1.693,1.04,3.867,1.04,6.817v56.306h10.599v-58.284
			c0-3.424-0.535-6.355-1.502-8.956C372.023,245.06,370.974,243.383,369.717,242.011z"/>
	</g>
	<g>
		<path fill="#00539B" d="M391.097,57.244h-19.64l-31.446,102.744h16.016l6.752-22.125h37.35l6.785,22.125h27.848l-31.174-92.315
			C400.743,59.225,399.142,57.244,391.097,57.244z M367.271,122.744l14.053-46.896l14.232,46.896H367.271z"/>
		<path fill="#00539B" d="M247.868,97.514l5.044-7.443c10.603-15.752,3.308-32.848-17.679-32.848h-44.792v102.798h43.195
			C271.625,160.021,283,115.78,247.868,97.514z M221.937,146.294h-7.309v-75.68h13.205c6.358,0,11.841,5.243,11.841,11.58
			c0,2.234-0.416,4.317-2.589,7.441l-8.561,12.842c8.957,2.142,14.94,8.967,14.94,21.712
			C243.465,139.688,234.191,146.294,221.937,146.294z"/>
		<path fill="#00539B" d="M160.885,97.514l5.006-7.443c10.646-15.752,3.351-32.848-17.685-32.848h-1.534h-43.204v102.798h43.204
			C184.62,160.021,196.104,115.78,160.885,97.514z M134.954,146.294h-7.247v-75.68h13.139c6.372,0,11.898,5.243,11.898,11.58
			c0,2.234-0.41,4.317-2.623,7.441l-8.605,12.842c8.983,2.142,14.963,8.967,14.963,21.712
			C156.479,139.688,147.218,146.294,134.954,146.294z"/>
		<path fill="#00539B" d="M335.775,57.223l-23.194,78.056l-19.51-64.664c-3.658-11.583-5.516-13.392-12.533-13.392h-18.142
			l33.626,102.766h24.688l31.326-102.766H335.775z"/>
	</g>
</g>
</svg>
